<svg width="50" height="50" viewBox="0 0 50 50" fill="none" xmlns="http://www.w3.org/2000/svg">
<path d="M22.3082 0.733166C22.5019 0.965332 22.6556 1.24104 22.7604 1.54451C22.8652 1.84799 22.9192 2.17328 22.9192 2.5018C22.9192 2.83031 22.8652 3.15561 22.7604 3.45909C22.6556 3.76256 22.5019 4.03826 22.3082 4.27043L7.11339 22.5005L47.9167 22.5005C48.4692 22.5005 48.9991 22.7638 49.3898 23.2326C49.7805 23.7014 50 24.3373 50 25.0003C50 25.6633 49.7805 26.2991 49.3898 26.7679C48.9991 27.2367 48.4692 27.5001 47.9167 27.5001L7.11339 27.5001L22.3082 45.7301C22.6991 46.1992 22.9187 46.8354 22.9187 47.4988C22.9187 48.1621 22.6991 48.7983 22.3082 49.2674C21.9173 49.7365 21.3871 50 20.8343 50C20.2815 50 19.7513 49.7365 19.3604 49.2674L0.610994 26.7689C0.417299 26.5368 0.26364 26.261 0.158801 25.9576C0.0539621 25.6541 0 25.3288 0 25.0003C0 24.6718 0.0539621 24.3465 0.158801 24.043C0.26364 23.7395 0.417299 23.4638 0.610994 23.2317L19.3604 0.733166C19.5539 0.50074 19.7836 0.316353 20.0365 0.190552C20.2894 0.0647469 20.5605 0 20.8343 0C21.1081 0 21.3792 0.0647469 21.6321 0.190552C21.885 0.316353 22.1147 0.50074 22.3082 0.733166Z" fill="white"/>
</svg>
