<svg width="51" height="51" viewBox="0 0 51 51" fill="none" xmlns="http://www.w3.org/2000/svg">
<path d="M27.6979 49.5572C27.5067 49.323 27.356 49.0457 27.2543 48.7411C27.1527 48.4366 27.1022 48.1107 27.1057 47.7822C27.1092 47.4537 27.1666 47.129 27.2746 46.8267C27.3826 46.5243 27.5392 46.2503 27.7354 46.0202L43.1223 27.952L2.32123 27.5201C1.76874 27.5142 1.24167 27.2453 0.855967 26.7724C0.470265 26.2994 0.257522 25.6613 0.26454 24.9983C0.271558 24.3354 0.497762 23.7019 0.893389 23.2373C1.28902 22.7726 1.82167 22.5149 2.37415 22.5207L43.1752 22.9526L28.1742 4.56277C27.7883 4.08959 27.5754 3.45111 27.5825 2.78778C27.5895 2.12445 27.8158 1.49061 28.2117 1.02571C28.6075 0.560802 29.1405 0.302908 29.6932 0.30876C30.246 0.314612 30.7734 0.58373 31.1593 1.05691L49.6695 23.7526C49.8607 23.9868 50.0115 24.2641 50.1131 24.5687C50.2147 24.8733 50.2652 25.1991 50.2617 25.5276C50.2583 25.8561 50.2009 26.1808 50.0928 26.4832C49.9848 26.7855 49.8282 27.0596 49.6321 27.2897L30.6456 49.5884C30.4496 49.8188 30.2179 50.0007 29.9637 50.1239C29.7095 50.247 29.4377 50.3089 29.164 50.306C28.8902 50.3031 28.6198 50.2354 28.3683 50.107C28.1167 49.9785 27.8889 49.7917 27.6979 49.5572Z" fill="white"/>
</svg>
